<svg width="100%" viewBox="0 0 78 60" fill="none"
  xmlns="http://www.w3.org/2000/svg">
  <path d="M20.0232 24.8179C18.8202 24.8179 17.8687 25.7012 17.8687 26.8694C17.8687 28.0375 18.8202 28.9208 20.0232 28.9208C21.2261 28.9208 22.1776 28.0375 22.1776 26.8694C22.1776 25.7012 21.2261 24.8179 20.0232 24.8179ZM32.3236 14.7317H24.705V11.2478H31.4958V7.76397H24.705V4.32761H32.1979V0.818897H20.5955V18.2403H32.3236V14.7317ZM23.8337 25.2472C25.0367 25.2472 25.9882 24.3639 25.9882 23.1957C25.9882 22.0276 25.0367 21.1442 23.8337 21.1442C22.6308 21.1442 21.6791 22.0276 21.6791 23.1957C21.6791 24.3639 22.6308 25.2472 23.8337 25.2472ZM7.84399 18.5972C10.5013 18.5972 12.8314 17.3094 14.2098 15.3281V18.2403H17.8188V8.55243H8.14534V11.8937H12.2051C11.8302 13.6831 10.1741 15.0682 8.16918 15.0682C5.93872 15.0682 4.13329 13.3488 4.13329 10.8433V8.26549C4.13329 5.80735 6.0624 3.99333 8.76943 3.99333C10.8742 3.99333 12.7534 5.09125 13.3797 6.69069L17.1902 5.42573C16.1369 2.371 12.7295 0.461914 8.79551 0.461914C3.83418 0.461914 0.123473 3.63615 0.123473 8.26549V10.8433C0.12551 15.3033 3.58275 18.5972 7.84399 18.5972ZM43.0743 5.71461H39.0191V11.2808H43.0743V5.71461ZM47.9621 0.818897H34.0771V4.32761H47.9621V0.818897ZM6.89268 38.4665H11.0023V31.8578L17.8926 21.0472H13.2562L8.92143 28.182L4.63614 21.0472H0L6.89268 31.9053V38.4665ZM43.0743 12.6698H39.0191V18.234H43.0743V12.6698ZM74.3425 38.4665L69.3551 31.8083C71.7871 31.092 73.4906 29.0632 73.4906 26.5826C73.4906 23.433 70.7598 21.0451 67.3003 21.0451H64.8944V24.5763H67.1507C68.3537 24.5763 69.2813 25.4826 69.2813 26.6753C69.2813 27.8683 68.3537 28.7765 67.1507 28.7765H64.8944V32.1178L69.3551 38.4665H74.3425ZM53.9748 41.2505H47.934V58.6946H53.9748C59.6382 58.6946 63.6482 54.9961 63.6482 49.985C63.6482 44.9738 59.6382 41.2505 53.9748 41.2505ZM54.2998 55.1859H52.0434V44.7571H54.2998C57.3581 44.7571 59.4367 47.0005 59.4367 49.9828C59.4367 52.9652 57.3581 55.1859 54.2998 55.1859ZM70.2135 51.7022H77.0041V48.2183H70.2135V44.782H77.7064V41.2754H66.1039V58.6946H77.8321V55.1859H70.2135V51.7022ZM63.6656 32.576L61.5413 29.7093L63.6372 26.8096L61.5131 23.9448L63.6114 21.0472L59.374 21.0492L57.2757 23.9778L59.4021 26.8447L57.3039 29.7444L59.4302 32.609L57.3322 35.5109L59.5885 38.4932H63.8714L61.5673 35.4779L63.6656 32.576ZM54.3085 31.6906V21.0472H50.2227V31.7629C50.2227 33.7669 48.7184 35.2468 46.6638 35.2468C44.609 35.2468 43.1047 33.7669 43.1047 31.7629V21.0472H39.0191V31.6906C39.0191 35.7957 42.253 38.8256 46.6638 38.8256C51.0746 38.8256 54.3085 35.7937 54.3085 31.6906ZM31.8772 51.9889C31.8772 53.9931 30.3729 55.4728 28.3181 55.4728C26.2635 55.4728 24.7592 53.9931 24.7592 51.9889V41.2732H20.6734V51.9168C20.6734 56.0219 23.9073 59.0516 28.3181 59.0516C32.7291 59.0516 35.9628 56.0219 35.9628 51.9168V41.2732H31.8772V51.9889ZM8.14534 52.3481H12.2051C11.8302 54.1374 10.1741 55.5223 8.16918 55.5223C5.93892 55.5223 4.13349 53.8032 4.13349 51.2977V48.7198C4.13349 46.2617 6.0624 44.4475 8.76963 44.4475C10.8744 44.4475 12.7536 45.5456 13.3799 47.145L17.1902 45.8799C16.1369 42.8253 12.7297 40.9163 8.79571 40.9163C3.83438 40.9163 0.123473 44.0905 0.123473 48.7198V51.2977C0.123473 55.7598 3.58275 59.0537 7.84196 59.0537C10.4993 59.0537 12.8294 57.7659 14.2079 55.7846V58.6967H17.8168V49.0087H8.14534V52.3481Z" fill="#FF5533"></path>
  <path d="M26.9163 20.6892V24.365C29.9247 24.365 32.3047 26.7034 32.3047 29.7579C32.3047 32.8125 29.9247 35.1509 26.9163 35.1509C23.91 35.1509 21.5279 32.8125 21.5279 29.7579H17.3164C17.3164 34.8413 21.5779 38.8267 26.9141 38.8267C32.2526 38.8267 36.5118 34.8413 36.5118 29.7579C36.5118 24.6744 32.2548 20.6892 26.9163 20.6892ZM43.7251 49.4762C44.3319 48.9541 45.3486 48.0811 45.3486 46.4816C45.3486 44.882 44.3319 44.0091 43.7251 43.4869C43.7004 43.4649 43.675 43.4436 43.6491 43.4228C43.3458 43.1196 43.2938 42.684 43.2873 42.4776V41.2516H39.1713V42.8821H39.1734C39.1734 42.9029 39.1713 42.9213 39.1713 42.9421C39.1713 44.5415 40.1878 45.4146 40.7946 45.9367C41.2304 46.3123 41.2304 46.3309 41.2304 46.4816C41.2304 46.6322 41.2304 46.6508 40.7946 47.0264C40.2117 47.5279 39.2514 48.3577 39.1799 49.8458H39.1756C39.1756 49.8745 39.1713 49.9015 39.1713 49.9283C39.1713 49.9448 39.1734 49.9593 39.1734 49.9737C39.1734 49.9902 39.1713 50.0047 39.1713 50.0191C39.1713 50.048 39.1734 50.0747 39.1756 50.1017H39.1799C39.2514 51.5898 40.2117 52.4194 40.7946 52.9209C41.2304 53.2965 41.2304 53.3151 41.2304 53.4657C41.2304 53.6164 41.2304 53.6351 40.7946 54.0107C40.1878 54.5328 39.1713 55.4058 39.1713 57.0053C39.1713 57.026 39.1713 57.0466 39.1734 57.0652H39.1713V58.6957H43.2873V57.4697C43.2938 57.2654 43.3458 56.8279 43.6491 56.5245C43.673 56.5037 43.6968 56.4832 43.7251 56.4605C44.3319 55.9384 45.3486 55.0653 45.3486 53.4657C45.3486 51.8663 44.3319 50.9932 43.7251 50.4711C43.3372 50.1388 43.2938 50.0852 43.2895 49.9737C43.2938 49.8623 43.3372 49.8086 43.7251 49.4762Z" fill="#FF5533"></path>
</svg>

