<svg width="20" height="20" viewBox="0 0 20 20" fill="none" xmlns="http://www.w3.org/2000/svg">
<path d="M10.2042 0H9.79578C4.38572 0 0 4.47715 0 10C0 15.5228 4.38572 20 9.79578 20H10.2042C15.6143 20 20 15.5228 20 10C20 4.47715 15.6143 0 10.2042 0Z" fill="#FF5533"/>
<path d="M8.92709 15C9.56968 14.9998 10.2021 14.8343 10.7673 14.5185C11.3325 14.2027 11.8126 13.7465 12.1643 13.1911V14.7967H14V9.45873H9.0802V11.3006H11.1447C11.0505 11.7922 10.7947 12.235 10.4206 12.5542C10.0465 12.8733 9.57719 13.0493 9.09198 13.0521C7.95794 13.0521 7.04094 12.1034 7.04094 10.722V9.30061C7.04094 7.94526 8.02187 6.9444 9.39652 6.9444C10.4683 6.9444 11.424 7.54909 11.742 8.4318L13.6803 7.73675C13.1436 6.053 11.4105 5 9.40998 5C6.88615 5 5 6.74978 5 9.30408V10.7255C5.00168 13.1911 6.75996 15 8.92709 15Z" fill="white"/>
</svg>
